<?xml version="1.0" encoding="UTF-8" standalone="no"?>
<svg
   xmlns:dc="http://purl.org/dc/elements/1.1/"
   xmlns:cc="http://creativecommons.org/ns#"
   xmlns:rdf="http://www.w3.org/1999/02/22-rdf-syntax-ns#"
   xmlns:svg="http://www.w3.org/2000/svg"
   xmlns="http://www.w3.org/2000/svg"
   xmlns:sodipodi="http://sodipodi.sourceforge.net/DTD/sodipodi-0.dtd"
   xmlns:inkscape="http://www.inkscape.org/namespaces/inkscape"
   version="1.1"
   x="0px"
   y="0px"
   viewBox="0 0 120 96"
   xml:space="preserve"
   id="svg100"
   sodipodi:docname="backup.svg"
   inkscape:version="1.0.2 (e86c870879, 2021-01-15, custom)"
   width="120"
   height="96"><metadata
     id="metadata106"><rdf:RDF><cc:Work
         rdf:about=""><dc:format>image/svg+xml</dc:format><dc:type
           rdf:resource="http://purl.org/dc/dcmitype/StillImage" /><dc:title></dc:title></cc:Work></rdf:RDF></metadata><defs
     id="defs104" /><sodipodi:namedview
     pagecolor="#ffffff"
     bordercolor="#666666"
     borderopacity="1"
     objecttolerance="10"
     gridtolerance="10"
     guidetolerance="10"
     inkscape:pageopacity="0"
     inkscape:pageshadow="2"
     inkscape:window-width="1920"
     inkscape:window-height="1013"
     id="namedview102"
     showgrid="false"
     inkscape:zoom="1.315625"
     inkscape:cx="233"
     inkscape:cy="297"
     inkscape:window-x="-9"
     inkscape:window-y="895"
     inkscape:window-maximized="1"
     inkscape:current-layer="svg100"
     inkscape:document-rotation="0" /><g
     id="g94"
     transform="matrix(0.20258621,0,0,0.20253165,9.0222309,-3.8981372)"><g
       id="g92"><g
         id="g4"><path
           d="M 480,157 H 30 c -3.866,0 -7,-3.134 -7,-7 V 30 c 0,-3.866 3.134,-7 7,-7 h 450 c 3.866,0 7,3.134 7,7 v 120 c 0,3.866 -3.134,7 -7,7 z M 37,143 H 473 V 37 H 37 Z"
           id="path2" /></g><g
         id="g8"><path
           d="m 266,207 c -3.866,0 -7,-3.134 -7,-7 v -50 c 0,-3.866 3.134,-7 7,-7 3.866,0 7,3.134 7,7 v 50 c 0,3.866 -3.134,7 -7,7 z"
           id="path6" /></g><g
         id="g12"><path
           d="m 230,207 c -3.866,0 -7,-3.134 -7,-7 v -50 c 0,-3.866 3.134,-7 7,-7 3.866,0 7,3.134 7,7 v 50 c 0,3.866 -3.134,7 -7,7 z"
           id="path10" /></g><g
         id="g16"><path
           d="m 266,377 c -3.866,0 -7,-3.134 -7,-7 v -50 c 0,-3.866 3.134,-7 7,-7 3.866,0 7,3.134 7,7 v 50 c 0,3.866 -3.134,7 -7,7 z"
           id="path14" /></g><g
         id="g20"><path
           d="m 230,377 c -3.866,0 -7,-3.134 -7,-7 v -50 c 0,-3.866 3.134,-7 7,-7 3.866,0 7,3.134 7,7 v 50 c 0,3.866 -3.134,7 -7,7 z"
           id="path18" /></g><g
         id="g24"><path
           d="m 420,117 c -14.888,0 -27,-12.112 -27,-27 0,-14.888 12.112,-27 27,-27 14.888,0 27,12.112 27,27 0,14.888 -12.112,27 -27,27 z m 0,-40 c -7.168,0 -13,5.832 -13,13 0,7.168 5.832,13 13,13 7.168,0 13,-5.832 13,-13 0,-7.168 -5.832,-13 -13,-13 z"
           id="path22" /></g><g
         id="g28"><path
           d="m 350,117 c -14.888,0 -27,-12.112 -27,-27 0,-14.888 12.112,-27 27,-27 14.888,0 27,12.112 27,27 0,14.888 -12.112,27 -27,27 z m 0,-40 c -7.168,0 -13,5.832 -13,13 0,7.168 5.832,13 13,13 7.168,0 13,-5.832 13,-13 0,-7.168 -5.832,-13 -13,-13 z"
           id="path26" /></g><g
         id="g32"><path
           d="M 480,327 H 30 c -3.866,0 -7,-3.134 -7,-7 V 200 c 0,-3.866 3.134,-7 7,-7 h 450 c 3.866,0 7,3.134 7,7 v 120 c 0,3.866 -3.134,7 -7,7 z M 37,313 H 473 V 207 H 37 Z"
           id="path30" /></g><g
         id="g36"><path
           d="m 420,287 c -14.888,0 -27,-12.112 -27,-27 0,-14.888 12.112,-27 27,-27 14.888,0 27,12.112 27,27 0,14.888 -12.112,27 -27,27 z m 0,-40 c -7.168,0 -13,5.832 -13,13 0,7.168 5.832,13 13,13 7.168,0 13,-5.832 13,-13 0,-7.168 -5.832,-13 -13,-13 z"
           id="path34" /></g><g
         id="g40"><path
           d="m 350,287 c -14.888,0 -27,-12.112 -27,-27 0,-14.888 12.112,-27 27,-27 14.888,0 27,12.112 27,27 0,14.888 -12.112,27 -27,27 z m 0,-40 c -7.168,0 -13,5.832 -13,13 0,7.168 5.832,13 13,13 7.168,0 13,-5.832 13,-13 0,-7.168 -5.832,-13 -13,-13 z"
           id="path38" /></g><g
         id="g44"><path
           d="M 480,497 H 30 c -3.866,0 -7,-3.134 -7,-7 V 370 c 0,-3.866 3.134,-7 7,-7 h 450 c 3.866,0 7,3.134 7,7 v 120 c 0,3.866 -3.134,7 -7,7 z M 37,483 H 473 V 377 H 37 Z"
           id="path42" /></g><g
         id="g48"><path
           d="m 420,457 c -14.888,0 -27,-12.112 -27,-27 0,-14.888 12.112,-27 27,-27 14.888,0 27,12.112 27,27 0,14.888 -12.112,27 -27,27 z m 0,-40 c -7.168,0 -13,5.832 -13,13 0,7.168 5.832,13 13,13 7.168,0 13,-5.832 13,-13 0,-7.168 -5.832,-13 -13,-13 z"
           id="path46" /></g><g
         id="g52"><path
           d="m 350,457 c -14.888,0 -27,-12.112 -27,-27 0,-14.888 12.112,-27 27,-27 14.888,0 27,12.112 27,27 0,14.888 -12.112,27 -27,27 z m 0,-40 c -7.168,0 -13,5.832 -13,13 0,7.168 5.832,13 13,13 7.168,0 13,-5.832 13,-13 0,-7.168 -5.832,-13 -13,-13 z"
           id="path50" /></g><g
         id="g90"><rect
           x="60"
           y="60"
           width="20"
           height="60"
           id="rect54" /><rect
           x="90"
           y="60"
           width="20"
           height="60"
           id="rect56" /><rect
           x="120"
           y="60"
           width="20"
           height="60"
           id="rect58" /><rect
           x="150"
           y="60"
           width="20"
           height="60"
           id="rect60" /><rect
           x="180"
           y="60"
           width="20"
           height="60"
           id="rect62" /><rect
           x="210"
           y="60"
           width="20"
           height="60"
           id="rect64" /><rect
           x="60"
           y="230"
           width="20"
           height="60"
           id="rect66" /><rect
           x="90"
           y="230"
           width="20"
           height="60"
           id="rect68" /><rect
           x="120"
           y="230"
           width="20"
           height="60"
           id="rect70" /><rect
           x="150"
           y="230"
           width="20"
           height="60"
           id="rect72" /><rect
           x="180"
           y="230"
           width="20"
           height="60"
           id="rect74" /><rect
           x="210"
           y="230"
           width="20"
           height="60"
           id="rect76" /><rect
           x="60"
           y="400"
           width="20"
           height="60"
           id="rect78" /><rect
           x="90"
           y="400"
           width="20"
           height="60"
           id="rect80" /><rect
           x="120"
           y="400"
           width="20"
           height="60"
           id="rect82" /><rect
           x="150"
           y="400"
           width="20"
           height="60"
           id="rect84" /><rect
           x="180"
           y="400"
           width="20"
           height="60"
           id="rect86" /><rect
           x="210"
           y="400"
           width="20"
           height="60"
           id="rect88" /></g></g></g></svg>
