<svg xmlns="http://www.w3.org/2000/svg" xmlns:xlink="http://www.w3.org/1999/xlink" version="1.1" x="0px" y="0px" viewBox="0 0 69 86.25" style="enable-background:new 0 0 69 69;" xml:space="preserve"><g><path d="M62.35156,48.06152h-4.93945v-8.19336c0-0.55273-0.44727-1-1-1H40.77527c-0.42908-2.71069-2.56738-4.85193-5.28308-5.28186   v-2.25037H50.5957c5.18848,0,9.40918-4.21484,9.40918-9.39453s-4.2207-9.39355-9.40918-9.39355   c-1.05664,0-2.08301,0.17285-3.06055,0.51563c-1.38281-1.45703-3.28809-2.2793-5.33398-2.2793   c-0.75781,0-1.50586,0.11621-2.21094,0.33984C38.11523,5.99414,33.18555,2.5,27.63379,2.5   c-6.36523,0-11.82129,4.60742-12.93164,10.81152c-3.4375,1.4541-5.70703,4.84863-5.70703,8.62988   c0,5.17969,4.21387,9.39453,9.39355,9.39453h15.10352v2.25439c-2.70142,0.4397-4.83521,2.57922-5.26501,5.27783h-15.6344   c-0.55273,0-1,0.44727-1,1v8.19336H6.64844c-0.55273,0-1,0.44727-1,1V65.5c0,0.55273,0.44727,1,1,1h11.87891   c0.55273,0,1-0.44727,1-1V49.06152c0-0.55273-0.44727-1-1-1h-4.93457v-7.19336h14.63501   c0.43066,2.69287,2.55957,4.82764,5.2644,5.27124v1.92212h-4.93164c-0.55273,0-1,0.44727-1,1V65.5c0,0.55273,0.44727,1,1,1   h11.87891c0.55273,0,1-0.44727,1-1V49.06152c0-0.55273-0.44727-1-1-1h-4.94727v-1.91455   c2.70947-0.42554,4.85156-2.56689,5.28247-5.27881h14.63745v7.19336h-4.93945c-0.55273,0-1,0.44727-1,1V65.5   c0,0.55273,0.44727,1,1,1h11.87891c0.55273,0,1-0.44727,1-1V49.06152C63.35156,48.50879,62.9043,48.06152,62.35156,48.06152z    M10.99512,21.94141c0-3.13672,1.9834-5.93457,4.93457-6.96094c0.35742-0.12402,0.61426-0.43848,0.66309-0.81348   C17.31934,8.65625,22.06641,4.5,27.63379,4.5c5.03027,0,9.45801,3.38086,10.76758,8.22168   c0.07813,0.29199,0.28516,0.5332,0.5625,0.6543s0.59277,0.11035,0.86328-0.02734c0.71094-0.36914,1.53223-0.56445,2.37402-0.56445   c1.67871,0,3.22754,0.75879,4.24805,2.08203c0.2832,0.36719,0.77734,0.49023,1.19922,0.30273   c0.9248-0.41211,1.91699-0.62109,2.94727-0.62109c4.08496,0,7.40918,3.31641,7.40918,7.39355s-3.32422,7.39453-7.40918,7.39453   H18.38867C14.31152,29.33594,10.99512,26.01855,10.99512,21.94141z M17.52734,64.5H7.64844V50.06152h9.87891V64.5z M39.43945,64.5   h-9.87891V50.06152h9.87891V64.5z M34.50415,44.23096c-0.00415,0-0.00769-0.00244-0.01196-0.00244   c-0.00256,0-0.00464,0.00146-0.0072,0.00146c-2.39392-0.01758-4.33923-1.96704-4.34363-4.35596   c0-0.0022,0.00122-0.00378,0.00122-0.00586c0-0.00244-0.00146-0.00464-0.00146-0.00708   c0.00293-2.396,1.9563-4.35132,4.36572-4.36108c2.40137,0,4.35449,1.95898,4.35449,4.36621   C38.86133,42.27173,36.91089,44.22815,34.50415,44.23096z M61.35156,64.5h-9.87891V50.06152h9.87891V64.5z"/></g></svg>
