<svg xmlns="http://www.w3.org/2000/svg" viewBox="0 0 96 120" x="0px" y="0px"><title>Artboard 10</title><path d="M62.408,51.6256a2.0588,2.0588,0,0,0-2.8281,0l-2.8288,2.8293L52.88,50.5834,64.6618,38.8016A13.9245,13.9245,0,0,0,81.9233,19.6535a1.9987,1.9987,0,0,0-3.2187-.5547L72.1539,25.65l-2.8281-2.8281,6.5507-6.5507a1.998,1.998,0,0,0-.5547-3.2206A13.9273,13.9273,0,0,0,56.1737,30.3154L44.3931,42.097,28.4686,26.1724l1.4165-1.4155a2.0023,2.0023,0,0,0-.25-3.0409l-9.9022-7.0722a1.9988,1.9988,0,0,0-2.5781.2129l-2.8281,2.83a2.0017,2.0017,0,0,0-.2148,2.5762l7.07,9.8982a2.0107,2.0107,0,0,0,1.4648.8321q.082.0058.1641.0058a1.9973,1.9973,0,0,0,1.414-.5859L25.64,29,41.5653,44.9253,14.1744,72.3187a5.9992,5.9992,0,0,0,8.4842,8.4842L50.0515,53.4115l3.872,3.872-2.8278,2.8283a1.9992,1.9992,0,0,0,0,2.8281L69.4821,81.3244A8,8,0,0,0,80.7944,70.01Zm-44.054-32.31.43-.4316,6.6014,4.7128-2.32,2.32ZM59.9471,32.2a2.0017,2.0017,0,0,0,.3906-2.2734,9.933,9.933,0,0,1,10.367-14.1385l-5.621,5.6191a1.9993,1.9993,0,0,0,0,2.8281L70.74,29.8916a1.9992,1.9992,0,0,0,2.828,0l5.6211-5.619a9.917,9.917,0,0,1-14.14,10.365,2.0052,2.0052,0,0,0-2.2734.3926L50.0507,47.7546l-2.8288-2.8288ZM19.8305,77.9748a2,2,0,0,1-2.8281-2.8281L44.3939,47.7539l2.8288,2.8288Zm58.1358.5215a4.094,4.094,0,0,1-5.6561,0l-16.9724-16.97L58.1629,58.7l.003-.0019.0019-.0029,2.8261-2.8271,16.9724,16.97a4.0007,4.0007,0,0,1,0,5.6581Z"/></svg>
